<svg xmlns="http://www.w3.org/2000/svg" width="149" height="87" viewBox="0 0 149 87">
  <path fill="#61DAFB" fill-rule="evenodd" d="M18.8844426,86.9105985 L18.8359375,87 L18.8308037,86.9233883 C18.7233055,86.9490029 18.6156417,86.9745403 18.5078125,87 L18.794512,86.3818042 L17.6171875,68.8125 C15.5859273,71.1562617 13.023453,72.7812455 9.9296875,73.6875 C9.08593328,73.9375012 8.25781656,74.0625 7.4453125,74.0625 C5.25780156,74.0625 3.21094703,73.1562591 1.3046875,71.34375 C0.429683125,70.4999958 -0.0078125,69.3437573 -0.0078125,67.875 C-0.0078125,67.1249962 0.101561406,66.2968795 0.3203125,65.390625 C0.976565781,62.6718614 2.05468,59.8437647 3.5546875,56.90625 C5.054695,53.9687353 6.68749117,51.2500125 8.453125,48.75 C10.2187588,46.2499875 11.5390581,44.5937541 12.4140625,43.78125 C14.7890744,41.5624889 16.9453028,40.453125 18.8828125,40.453125 C19.5078156,40.453125 20.1015597,40.5624989 20.6640625,40.78125 C23.0390744,41.7187547 24.2421873,44.2812291 24.2734375,48.46875 L26.0078125,73.78125 L25.9918144,73.8107367 C28.6924375,73.403992 31.1586894,72.9801037 33.390625,72.5390625 C36.000013,72.0234349 38.851547,71.0156325 41.9453125,69.515625 C41.9453125,64.6718508 41.750002,59.6797132 41.359375,54.5390625 C40.968748,49.3984118 40.6171891,44.4218991 40.3046875,39.609375 L46.1171875,30.421875 L49.2109375,19.21875 C54.3672133,16.218735 59.5312241,13.2031402 64.703125,10.171875 C69.8750259,7.14060984 75.0546616,4.10939016 80.2421875,1.078125 C80.5234389,0.921874219 80.7421867,0.84375 80.8984375,0.84375 C81.1796889,0.84375 81.3203125,1.03124812 81.3203125,1.40625 C81.3203125,1.50000047 81.3046877,1.60937438 81.2734375,1.734375 L78.1328125,12.9375 C73.039037,15.937515 67.9375255,18.9218602 62.828125,21.890625 C57.7187245,24.8593898 52.6328378,27.8281102 47.5703125,30.796875 L49.1171875,55.453125 C49.1484377,56.0156278 49.1640625,56.5781222 49.1640625,57.140625 C49.1640625,58.5156319 49.0859383,59.8437436 48.9296875,61.125 C48.6796863,62.9062589 48.3671894,64.4687433 47.9921875,65.8125 C45.9921775,73.9375406 42.2656523,79.1015515 36.8125,81.3046875 C31.4609527,83.4667739 25.4849917,85.3353923 18.8844439,86.9105964 Z M101.646469,74.3704878 C100.988858,75.0520193 100.393163,75.8243528 99.859375,76.6875 C99.1249963,77.8750059 98.4296908,79.1093686 97.7734375,80.390625 C96.0546789,83.6718914 93.8359511,85.6406217 91.1171875,86.296875 C88.7734258,86.8593778 85.9140794,86.7968784 82.5390625,86.109375 C81.445307,85.8906239 78.8047084,85.1406314 74.6171875,83.859375 C70.4296666,82.5781186 67.9453164,81.6093783 67.1640625,80.953125 C66.6328098,80.5156228 66.8046831,80.093752 67.6796875,79.6875 C72.0859595,78.1249922 76.7656002,76.9375041 81.71875,76.125 C86.6718998,75.3124959 91.4609144,74.2968811 96.0859375,73.078125 C96.586297,72.9507608 97.0667915,72.7823472 97.5274221,72.5728836 C97.7145014,72.2820282 97.9371315,71.9816923 98.1953125,71.671875 L98.1953125,71.578125 C99.7890705,66.2968486 102.687479,62.6250103 106.890625,60.5625 C111.093771,58.4999897 115.335916,56.5000097 119.617188,54.5625 C118.02343,50.4999797 117.890618,46.171898 119.21875,41.578125 C120.546882,36.984352 122.554674,33.7343845 125.242188,31.828125 C127.335948,30.3593677 130.539041,29.2890659 134.851562,28.6171875 C139.164084,27.9453091 142.867172,28.2499936 145.960938,29.53125 C147.773447,30.3125039 148.679688,31.8124889 148.679688,34.03125 C148.679688,36.2500111 148.273442,38.5312383 147.460938,40.875 C146.210931,44.5625184 144.296888,48.109358 141.71875,51.515625 C139.140612,54.921892 136.257828,57.7031142 133.070312,59.859375 C131.007802,61.265632 128.718763,62.5156195 126.203125,63.609375 C123.687487,64.7031305 120.66408,65.9999925 117.132812,67.5 C114.976552,68.4375047 112.851573,69.2343717 110.757812,69.890625 C106.709231,71.4609838 103.672134,72.9542624 101.646469,74.3704878 Z M24.3203125,30.28125 C21.226547,30.8437528 18.1484528,31.4140596 15.0859375,31.9921875 C12.0234222,32.5703154 8.96095281,33.1406222 5.8984375,33.703125 L11.6171875,22.265625 C18.3047209,21.0781191 24.4609094,19.9375055 30.0859375,18.84375 L24.3203125,30.28125 Z M141.929688,44.015625 C140.992183,41.1718608 138.171899,40.0078099 133.46875,40.5234375 C128.765601,41.0390651 125.710945,41.8749942 124.304688,43.03125 C125.523444,46.1875158 127.132803,49.0781119 129.132812,51.703125 C131.414074,50.7343702 133.710926,49.601569 136.023438,48.3046875 C138.335949,47.007806 140.304679,45.5781328 141.929688,44.015625 Z M13.6796875,52.359375 C13.1171847,52.1718741 12.58594,52.078125 12.0859375,52.078125 C11.1484328,52.078125 10.3046913,52.3906219 9.5546875,53.015625 C8.36718156,53.9531297 7.39844125,54.8906203 6.6484375,55.828125 C6.30468578,56.2656272 6.1328125,56.7187477 6.1328125,57.1875 C6.1328125,57.593752 6.27343609,58.0312477 6.5546875,58.5 C7.24219094,59.8750069 8.52342813,60.8281223 10.3984375,61.359375 C11.304692,61.6093762 12.2265578,61.734375 13.1640625,61.734375 C14.1640675,61.734375 15.1796823,61.5937514 16.2109375,61.3125 C16.304688,60.718747 16.3515625,60.0625036 16.3515625,59.34375 C16.3515625,58.3749952 16.2734383,57.2968809 16.1171875,56.109375 C15.8671862,54.0781148 15.0546944,52.8281273 13.6796875,52.359375 Z"/>
</svg>
